<?xml version="1.0" standalone="no"?>
<!DOCTYPE svg PUBLIC "-//W3C//DTD SVG 20010904//EN"
 "http://www.w3.org/TR/2001/REC-SVG-20010904/DTD/svg10.dtd">
<svg version="1.0" xmlns="http://www.w3.org/2000/svg"
 width="400.000000pt" height="400.000000pt" viewBox="0 0 400.000000 400.000000"
 preserveAspectRatio="xMidYMid meet">
<metadata>
Created by potrace 1.14, written by Peter Selinger 2001-2017
</metadata>
<g transform="translate(0.000000,400.000000) scale(0.100000,-0.100000)"
fill="#000000" stroke="none">
<path d="M1928 3505 c-2 -1 -28 -5 -58 -8 -231 -25 -460 -109 -660 -243 -357
-239 -582 -592 -655 -1025 -13 -82 -15 -373 -2 -444 40 -220 88 -354 198 -553
66 -121 243 -320 369 -417 209 -159 425 -251 710 -302 71 -13 351 -11 435 3
462 76 832 327 1077 731 26 43 44 81 40 85 -4 4 -88 47 -187 97 -165 83 -181
89 -193 73 -7 -9 -36 -53 -64 -97 -61 -96 -196 -233 -295 -298 -373 -247 -848
-241 -1219 15 -227 156 -398 425 -444 698 -15 87 -19 223 -9 295 17 122 22
145 50 230 124 373 436 642 834 720 77 15 294 17 356 4 21 -5 56 -12 76 -15
168 -27 419 -172 547 -317 101 -115 101 -115 80 -139 -15 -16 -273 -273 -289
-287 -3 -2 -51 41 -107 95 -110 106 -176 147 -292 185 -104 33 -262 31 -364
-5 -153 -55 -282 -168 -352 -309 -89 -180 -88 -371 3 -557 46 -95 169 -215
267 -262 207 -101 441 -85 625 42 26 18 273 258 549 534 l503 503 -44 89
c-195 387 -458 634 -835 782 -82 33 -254 78 -329 87 -50 6 -316 15 -321 10z
m207 -1334 c22 -10 73 -52 113 -93 l72 -74 -82 -82 c-64 -65 -92 -85 -129 -96
-151 -45 -285 105 -224 251 21 50 42 72 90 94 51 24 109 24 160 0z"/>
</g>
</svg>
